<svg width="36" height="36" viewBox="0 0 36 36" fill="none" xmlns="http://www.w3.org/2000/svg">
<path d="M29.5473 25.2469C29.1264 26.2205 28.6279 27.1165 28.0501 27.9405C27.2627 29.0652 26.6161 29.8424 26.1204 30.275C25.3506 30.9817 24.5236 31.3454 23.6394 31.3659C23.0059 31.3659 22.2405 31.1856 21.3489 30.819C20.4545 30.4539 19.6333 30.275 18.8811 30.275C18.0937 30.275 17.249 30.4539 16.3443 30.819C15.441 31.1856 14.7108 31.3777 14.1521 31.3952C13.306 31.4319 12.46 31.0595 11.6168 30.275C11.0787 29.8057 10.4056 28.9992 9.59765 27.8584C8.7325 26.6428 8.02132 25.2278 7.46411 23.6192C6.86731 21.8787 6.56818 20.1953 6.56818 18.5647C6.56818 16.6981 6.97142 15.0865 7.77938 13.7375C8.41577 12.6524 9.26039 11.7975 10.3162 11.1699C11.3734 10.5409 12.5171 10.2197 13.7474 10.1992C14.4219 10.1992 15.3061 10.4074 16.4015 10.818C17.4969 11.2286 18.2007 11.4368 18.5072 11.4368C18.7388 11.4368 19.5175 11.1919 20.8431 10.7066C22.0938 10.2564 23.1496 10.0702 24.0148 10.1435C26.3609 10.3327 28.122 11.2565 29.2936 12.9222C27.1967 14.1935 26.16 15.9722 26.1806 18.2553C26.1981 20.034 26.8448 21.5135 28.1117 22.6881C28.6865 23.2336 29.3273 23.6544 30.04 23.9535C29.8845 24.4037 29.7203 24.8334 29.5473 25.2469ZM24.1702 4.08602C24.1702 5.47905 23.6599 6.78117 22.6467 7.98504C21.4208 9.41619 19.9398 10.2447 18.3341 10.1142C18.3136 9.94701 18.3033 9.77105 18.3033 9.58629C18.3033 8.24751 18.884 6.81636 19.9207 5.64475C20.4369 5.05234 21.0938 4.55819 21.89 4.1652C22.6848 3.77809 23.4356 3.564 24.1423 3.52734C24.1614 3.71504 24.1702 3.90126 24.1702 4.08602Z" fill="white"/>
</svg>
