<svg width="142" height="145" viewBox="0 0 142 145" fill="none" xmlns="http://www.w3.org/2000/svg">
<path fill-rule="evenodd" clip-rule="evenodd" d="M33.2994 20.2967C31.997 22.0463 29.1956 28.0036 27.8468 31.0315L121.522 70.3261C122.739 67.2369 125.046 61.017 125.364 58.9161C127.46 46.9996 121.92 36.4166 110.478 30.3863L64.085 10.9256C51.684 6.89303 40.374 10.3526 33.2994 20.2967ZM11.2031 70.6595L27.829 31.025L121.54 70.3347L104.781 110.287C97.9256 126.629 83.4242 132.362 66.9656 125.458L26.6936 108.565C10.3893 101.725 4.30209 87.111 11.2031 70.6595Z" fill="url(#paint0_linear_6509_1922)"/>
<g opacity="0.5" filter="url(#filter0_f_6509_1922)">
<path d="M89.7949 39.0092L63.8131 28.5221C54.3888 24.7182 46.4816 28.4991 42.3349 38.7727L28.2905 73.5679C24.0758 84.0099 27.1973 92.0856 36.6215 95.8896L62.6033 106.377C72.1795 110.242 79.8773 106.533 84.092 96.0911L98.1364 61.2958C102.283 51.0223 99.371 42.8744 89.7949 39.0092Z" fill="#EB6F0A"/>
</g>
<g filter="url(#filter1_b_6509_1922)">
<mask id="path-3-outside-1_6509_1922" maskUnits="userSpaceOnUse" x="36.3782" y="36.7085" width="106" height="108" fill="black">
<rect fill="white" x="36.3782" y="36.7085" width="106" height="108"/>
<path fill-rule="evenodd" clip-rule="evenodd" d="M39.2727 59.2587C38.7485 61.3758 38.4696 67.953 38.3971 71.267H139.98C139.907 67.9473 139.628 61.3193 139.11 59.2587C136.433 47.4593 127.23 39.8433 114.346 38.7085H64.0368C51.0412 39.7868 41.9499 47.352 39.2727 59.2587ZM38.3782 71.268V114.248C38.3782 132.089 49.6447 143.211 67.3253 143.211H110.997C128.845 143.211 140 132.314 140 114.593V71.268H38.3782ZM61.5804 95.8493C61.692 98.4407 63.8114 100.479 66.377 100.36C68.8869 100.253 70.8948 98.1076 70.7832 95.5049C70.7275 92.97 68.6638 90.9884 66.1539 90.9884C63.5883 91.107 61.5804 93.2523 61.5804 95.8493ZM84.5041 95.8493C84.6156 98.4407 86.7351 100.479 89.3007 100.36C91.8106 100.253 93.8185 98.1076 93.7069 95.5049C93.6512 92.97 91.5875 90.9884 89.0776 90.9884C86.512 91.107 84.5041 93.2523 84.5041 95.8493ZM107.428 116.338C107.428 118.935 109.491 121.08 112.057 121.136C114.678 121.136 116.798 118.991 116.798 116.338C116.798 113.69 114.678 111.544 112.057 111.544H112.001C109.435 111.601 107.372 113.741 107.428 116.338ZM89.3007 120.854C86.7351 120.972 84.6156 118.934 84.5041 116.337C84.5041 113.74 86.512 111.601 89.0776 111.482C91.5875 111.482 93.6512 113.464 93.7069 116.004C93.8185 118.601 91.8106 120.747 89.3007 120.854ZM66.3212 120.854C63.7555 120.972 61.6361 118.934 61.5245 116.337C61.5245 113.74 63.5324 111.601 66.0981 111.482C68.6079 111.482 70.6716 113.464 70.7274 116.004C70.8389 118.601 68.831 120.747 66.3212 120.854ZM112.057 91.0505C109.491 91.107 107.483 93.1959 107.483 95.7929V95.8493C107.539 98.4407 109.658 100.417 112.224 100.36C114.734 100.309 116.742 98.164 116.686 95.567C116.574 93.0773 114.566 91.0505 112.057 91.0505Z"/>
</mask>
<path fill-rule="evenodd" clip-rule="evenodd" d="M39.2727 59.2587C38.7485 61.3758 38.4696 67.953 38.3971 71.267H139.98C139.907 67.9473 139.628 61.3193 139.11 59.2587C136.433 47.4593 127.23 39.8433 114.346 38.7085H64.0368C51.0412 39.7868 41.9499 47.352 39.2727 59.2587ZM38.3782 71.268V114.248C38.3782 132.089 49.6447 143.211 67.3253 143.211H110.997C128.845 143.211 140 132.314 140 114.593V71.268H38.3782ZM61.5804 95.8493C61.692 98.4407 63.8114 100.479 66.377 100.36C68.8869 100.253 70.8948 98.1076 70.7832 95.5049C70.7275 92.97 68.6638 90.9884 66.1539 90.9884C63.5883 91.107 61.5804 93.2523 61.5804 95.8493ZM84.5041 95.8493C84.6156 98.4407 86.7351 100.479 89.3007 100.36C91.8106 100.253 93.8185 98.1076 93.7069 95.5049C93.6512 92.97 91.5875 90.9884 89.0776 90.9884C86.512 91.107 84.5041 93.2523 84.5041 95.8493ZM107.428 116.338C107.428 118.935 109.491 121.08 112.057 121.136C114.678 121.136 116.798 118.991 116.798 116.338C116.798 113.69 114.678 111.544 112.057 111.544H112.001C109.435 111.601 107.372 113.741 107.428 116.338ZM89.3007 120.854C86.7351 120.972 84.6156 118.934 84.5041 116.337C84.5041 113.74 86.512 111.601 89.0776 111.482C91.5875 111.482 93.6512 113.464 93.7069 116.004C93.8185 118.601 91.8106 120.747 89.3007 120.854ZM66.3212 120.854C63.7555 120.972 61.6361 118.934 61.5245 116.337C61.5245 113.74 63.5324 111.601 66.0981 111.482C68.6079 111.482 70.6716 113.464 70.7274 116.004C70.8389 118.601 68.831 120.747 66.3212 120.854ZM112.057 91.0505C109.491 91.107 107.483 93.1959 107.483 95.7929V95.8493C107.539 98.4407 109.658 100.417 112.224 100.36C114.734 100.309 116.742 98.164 116.686 95.567C116.574 93.0773 114.566 91.0505 112.057 91.0505Z" fill="#FFCBB9" fill-opacity="0.35"/>
<path d="M38.3971 71.267L37.0148 71.2367C37.0067 71.6086 37.1487 71.968 37.4088 72.2339C37.6689 72.4997 38.0251 72.6496 38.3971 72.6496V71.267ZM39.2727 59.2587L40.6148 59.591C40.6172 59.5814 40.6195 59.5717 40.6217 59.562L39.2727 59.2587ZM139.98 71.267V72.6496C140.352 72.6496 140.708 72.4998 140.968 72.2339C141.228 71.9681 141.37 71.6086 141.362 71.2368L139.98 71.267ZM139.11 59.2587L137.761 59.5646C137.764 59.5752 137.766 59.5857 137.769 59.5962L139.11 59.2587ZM114.346 38.7085L114.467 37.3312C114.427 37.3277 114.386 37.3259 114.346 37.3259V38.7085ZM64.0368 38.7085V37.3259C63.9986 37.3259 63.9605 37.3275 63.9224 37.3306L64.0368 38.7085ZM38.3782 71.268V69.8854C37.6146 69.8854 36.9956 70.5044 36.9956 71.268H38.3782ZM140 71.268H141.383C141.383 70.5044 140.764 69.8854 140 69.8854V71.268ZM66.377 100.36L66.318 98.9788L66.3132 98.979L66.377 100.36ZM61.5804 95.8493H60.1978C60.1978 95.8691 60.1982 95.889 60.1991 95.9088L61.5804 95.8493ZM70.7832 95.5049L69.401 95.5353C69.4012 95.5449 69.4015 95.5545 69.4019 95.5641L70.7832 95.5049ZM66.1539 90.9884V89.6058C66.1327 89.6058 66.1114 89.6063 66.0901 89.6073L66.1539 90.9884ZM89.3007 100.36L89.2417 98.9788L89.2369 98.979L89.3007 100.36ZM84.5041 95.8493H83.1215C83.1215 95.8691 83.1219 95.889 83.1228 95.9088L84.5041 95.8493ZM93.7069 95.5049L92.3247 95.5353C92.3249 95.5449 92.3252 95.5545 92.3256 95.5641L93.7069 95.5049ZM89.0776 90.9884V89.6058C89.0563 89.6058 89.0351 89.6063 89.0138 89.6073L89.0776 90.9884ZM112.057 121.136L112.026 122.519C112.037 122.519 112.047 122.519 112.057 122.519V121.136ZM107.428 116.338H108.81C108.81 116.328 108.81 116.318 108.81 116.308L107.428 116.338ZM112.001 111.544V110.162C111.991 110.162 111.981 110.162 111.971 110.162L112.001 111.544ZM84.5041 116.337H83.1215C83.1215 116.357 83.1219 116.377 83.1228 116.397L84.5041 116.337ZM89.3007 120.854L89.2417 119.473L89.2369 119.473L89.3007 120.854ZM89.0776 111.482V110.1C89.0563 110.1 89.0351 110.1 89.0138 110.101L89.0776 111.482ZM93.7069 116.004L92.3247 116.035C92.3249 116.044 92.3252 116.054 92.3256 116.064L93.7069 116.004ZM61.5245 116.337H60.1419C60.1419 116.357 60.1424 116.377 60.1432 116.397L61.5245 116.337ZM66.3212 120.854L66.2621 119.473L66.2573 119.473L66.3212 120.854ZM66.0981 111.482V110.1C66.0768 110.1 66.0555 110.1 66.0343 110.101L66.0981 111.482ZM70.7274 116.004L69.3451 116.035C69.3453 116.044 69.3456 116.054 69.3461 116.064L70.7274 116.004ZM112.057 91.0505V89.6679C112.046 89.6679 112.036 89.668 112.026 89.6682L112.057 91.0505ZM107.483 95.8493H106.1C106.1 95.8592 106.101 95.8692 106.101 95.8791L107.483 95.8493ZM112.224 100.36L112.196 98.9779L112.193 98.9779L112.224 100.36ZM116.686 95.567L118.068 95.5374C118.068 95.5266 118.068 95.5159 118.067 95.5052L116.686 95.567ZM39.7794 71.2972C39.8153 69.6547 39.9025 67.2008 40.0454 64.8997C40.1916 62.5469 40.3884 60.5051 40.6148 59.591L37.9307 58.9263C37.6328 60.1294 37.428 62.4347 37.2855 64.7283C37.1399 67.0735 37.0514 69.5652 37.0148 71.2367L39.7794 71.2972ZM139.98 69.8844H38.3971V72.6496H139.98V69.8844ZM137.769 59.5962C137.991 60.4779 138.186 62.5131 138.332 64.8758C138.474 67.1835 138.562 69.6517 138.598 71.2972L141.362 71.2368C141.326 69.5627 141.237 67.057 141.092 64.7056C140.951 62.4093 140.747 60.1001 140.451 58.9212L137.769 59.5962ZM114.224 40.0858C126.569 41.173 135.23 48.4066 137.761 59.5646L140.458 58.9528C137.635 46.512 127.89 38.5135 114.467 37.3312L114.224 40.0858ZM64.0368 40.0911H114.346V37.3259H64.0368V40.0911ZM40.6217 59.562C43.1549 48.2956 51.704 41.1192 64.1511 40.0864L63.9224 37.3306C50.3784 38.4545 40.745 46.4083 37.9238 58.9554L40.6217 59.562ZM39.7608 114.248V71.268H36.9956V114.248H39.7608ZM67.3253 141.828C58.7785 141.828 51.918 139.146 47.1976 134.44C42.478 129.736 39.7608 122.873 39.7608 114.248H36.9956C36.9956 123.464 39.9117 131.082 45.2454 136.399C50.5785 141.715 58.1915 144.593 67.3253 144.593V141.828ZM110.997 141.828H67.3253V144.593H110.997V141.828ZM138.617 114.593C138.617 123.159 135.928 129.931 131.222 134.562C126.513 139.195 119.639 141.828 110.997 141.828V144.593C120.203 144.593 127.831 141.778 133.161 136.533C138.494 131.285 141.383 123.749 141.383 114.593H138.617ZM138.617 71.268V114.593H141.383V71.268H138.617ZM38.3782 72.6506H140V69.8854H38.3782V72.6506ZM66.3132 98.979C64.5569 99.0602 63.0423 97.6622 62.9617 95.7898L60.1991 95.9088C60.3416 99.2191 63.0659 101.897 66.4409 101.741L66.3132 98.979ZM69.4019 95.5641C69.4809 97.4062 68.0625 98.9043 66.318 98.9788L66.4361 101.742C69.7113 101.602 72.3087 98.8089 72.1646 95.4457L69.4019 95.5641ZM66.1539 92.371C67.9218 92.371 69.3619 93.7617 69.401 95.5353L72.1655 95.4745C72.093 92.1784 69.4058 89.6058 66.1539 89.6058V92.371ZM62.963 95.8493C62.963 93.9702 64.4108 92.453 66.2178 92.3695L66.0901 89.6073C62.7658 89.7609 60.1978 92.5344 60.1978 95.8493H62.963ZM89.2369 98.979C87.4806 99.0602 85.966 97.6622 85.8854 95.7898L83.1228 95.9088C83.2653 99.2191 85.9896 101.897 89.3646 101.741L89.2369 98.979ZM92.3256 95.5641C92.4046 97.4062 90.9862 98.9043 89.2417 98.9788L89.3598 101.742C92.635 101.602 95.2324 98.8089 95.0883 95.4457L92.3256 95.5641ZM89.0776 92.371C90.8455 92.371 92.2856 93.7617 92.3247 95.5353L95.0892 95.4745C95.0167 92.1783 92.3295 89.6058 89.0776 89.6058V92.371ZM85.8867 95.8493C85.8867 93.9702 87.3345 92.453 89.1415 92.3695L89.0138 89.6073C85.6895 89.7609 83.1215 92.5344 83.1215 95.8493H85.8867ZM112.087 119.754C110.292 119.715 108.81 118.202 108.81 116.338H106.045C106.045 119.667 108.69 122.445 112.026 122.519L112.087 119.754ZM115.415 116.338C115.415 118.243 113.899 119.754 112.057 119.754V122.519C115.458 122.519 118.18 119.739 118.18 116.338H115.415ZM112.057 112.927C113.9 112.927 115.415 114.438 115.415 116.338H118.18C118.18 112.941 115.457 110.162 112.057 110.162V112.927ZM112.001 112.927H112.057V110.162H112.001V112.927ZM108.81 116.308C108.77 114.474 110.229 112.966 112.031 112.927L111.971 110.162C108.642 110.235 105.973 113.007 106.045 116.367L108.81 116.308ZM83.1228 116.397C83.2651 119.712 85.9885 122.391 89.3646 122.235L89.2369 119.473C87.4816 119.554 85.9661 118.157 85.8854 116.278L83.1228 116.397ZM89.0138 110.101C85.6915 110.255 83.1215 113.02 83.1215 116.337H85.8867C85.8867 114.46 87.3325 112.947 89.1415 112.863L89.0138 110.101ZM95.0892 115.974C95.0168 112.673 92.3306 110.1 89.0776 110.1V112.865C90.8444 112.865 92.2856 114.254 92.3247 116.035L95.0892 115.974ZM89.3598 122.235C92.6339 122.095 95.2326 119.304 95.0883 115.945L92.3256 116.064C92.4044 117.899 90.9873 119.398 89.2417 119.473L89.3598 122.235ZM60.1432 116.397C60.2856 119.712 63.009 122.391 66.385 122.235L66.2573 119.473C64.5021 119.554 62.9866 118.157 62.9059 116.278L60.1432 116.397ZM66.0343 110.101C62.7119 110.255 60.1419 113.02 60.1419 116.337H62.9071C62.9071 114.46 64.3529 112.947 66.1619 112.863L66.0343 110.101ZM72.1097 115.974C72.0372 112.673 69.351 110.1 66.0981 110.1V112.865C67.8649 112.865 69.306 114.254 69.3451 116.035L72.1097 115.974ZM66.3802 122.235C69.6543 122.095 72.253 119.304 72.1087 115.945L69.3461 116.064C69.4249 117.899 68.0078 119.398 66.2621 119.473L66.3802 122.235ZM108.866 95.7929C108.866 93.9279 110.292 92.4723 112.087 92.4328L112.026 89.6682C108.689 89.7417 106.1 92.4639 106.1 95.7929H108.866ZM108.866 95.8493V95.7929H106.1V95.8493H108.866ZM112.193 98.9779C110.375 99.0179 108.904 97.6311 108.865 95.8196L106.101 95.8791C106.173 99.2503 108.941 101.815 112.254 101.742L112.193 98.9779ZM115.304 95.5967C115.344 97.4666 113.905 98.9433 112.196 98.9779L112.252 101.743C115.562 101.676 118.14 98.8615 118.068 95.5374L115.304 95.5967ZM112.057 92.4331C113.788 92.4331 115.224 93.8388 115.305 95.6289L118.067 95.5052C117.924 92.3158 115.345 89.6679 112.057 89.6679V92.4331Z" fill="url(#paint1_linear_6509_1922)" mask="url(#path-3-outside-1_6509_1922)"/>
</g>
<g filter="url(#filter2_bd_6509_1922)">
<mask id="path-5-inside-2_6509_1922" fill="white">
<path fill-rule="evenodd" clip-rule="evenodd" d="M72.6227 51.863C72.6227 54.3528 70.7821 56.2102 68.3281 56.2102C65.874 56.2102 64.0334 54.3528 64.0334 51.863V34.6494C64.0334 32.1597 65.874 30.2966 68.3281 30.2966C70.7821 30.2966 72.6227 32.1597 72.6227 34.6494V51.863ZM114.344 51.863C114.344 54.3528 112.448 56.2102 110.049 56.2102C107.595 56.2102 105.755 54.3528 105.755 51.863V34.6494C105.755 32.1597 107.595 30.2966 110.049 30.2966C112.448 30.2966 114.344 32.1597 114.344 34.6494V51.863Z"/>
</mask>
<path fill-rule="evenodd" clip-rule="evenodd" d="M72.6227 51.863C72.6227 54.3528 70.7821 56.2102 68.3281 56.2102C65.874 56.2102 64.0334 54.3528 64.0334 51.863V34.6494C64.0334 32.1597 65.874 30.2966 68.3281 30.2966C70.7821 30.2966 72.6227 32.1597 72.6227 34.6494V51.863ZM114.344 51.863C114.344 54.3528 112.448 56.2102 110.049 56.2102C107.595 56.2102 105.755 54.3528 105.755 51.863V34.6494C105.755 32.1597 107.595 30.2966 110.049 30.2966C112.448 30.2966 114.344 32.1597 114.344 34.6494V51.863Z" fill="url(#paint2_linear_6509_1922)"/>
<path d="M68.3281 56.7632C71.0934 56.7632 73.1758 54.6523 73.1758 51.863H72.0697C72.0697 54.0532 70.4709 55.6571 68.3281 55.6571V56.7632ZM63.4803 51.863C63.4803 54.6523 65.5627 56.7632 68.3281 56.7632V55.6571C66.1852 55.6571 64.5864 54.0532 64.5864 51.863H63.4803ZM63.4803 34.6494V51.863H64.5864V34.6494H63.4803ZM68.3281 29.7436C65.5617 29.7436 63.4803 31.8611 63.4803 34.6494H64.5864C64.5864 32.4583 66.1862 30.8497 68.3281 30.8497V29.7436ZM73.1758 34.6494C73.1758 31.8611 71.0944 29.7436 68.3281 29.7436V30.8497C70.4699 30.8497 72.0697 32.4583 72.0697 34.6494H73.1758ZM73.1758 51.863V34.6494H72.0697V51.863H73.1758ZM110.049 56.7632C112.754 56.7632 114.897 54.6571 114.897 51.863H113.791C113.791 54.0485 112.141 55.6571 110.049 55.6571V56.7632ZM105.202 51.863C105.202 54.6523 107.284 56.7632 110.049 56.7632V55.6571C107.907 55.6571 106.308 54.0532 106.308 51.863H105.202ZM105.202 34.6494V51.863H106.308V34.6494H105.202ZM110.049 29.7436C107.283 29.7436 105.202 31.8611 105.202 34.6494H106.308C106.308 32.4583 107.907 30.8497 110.049 30.8497V29.7436ZM114.897 34.6494C114.897 31.8563 112.755 29.7436 110.049 29.7436V30.8497C112.14 30.8497 113.791 32.463 113.791 34.6494H114.897ZM114.897 51.863V34.6494H113.791V51.863H114.897Z" fill="url(#paint3_linear_6509_1922)" mask="url(#path-5-inside-2_6509_1922)"/>
</g>
<g filter="url(#filter3_bd_6509_1922)">
<mask id="path-7-inside-3_6509_1922" fill="white">
<path fill-rule="evenodd" clip-rule="evenodd" d="M61.6318 95.9007C61.7433 98.4921 63.8627 100.53 66.4284 100.412C68.9383 100.304 70.9462 98.159 70.8346 95.5563C70.7788 93.0214 68.7152 91.0398 66.2053 91.0398C63.6396 91.1584 61.6318 93.3037 61.6318 95.9007ZM84.5543 95.9007C84.6658 98.4921 86.7853 100.53 89.3509 100.412C91.8608 100.304 93.8687 98.159 93.7571 95.5563C93.7013 93.0214 91.6377 91.0398 89.1278 91.0398C86.5622 91.1584 84.5543 93.3037 84.5543 95.9007ZM107.478 116.388C107.478 118.985 109.541 121.131 112.107 121.187C114.728 121.187 116.848 119.042 116.848 116.388C116.848 113.741 114.728 111.595 112.107 111.595H112.051C109.486 111.652 107.422 113.791 107.478 116.388ZM89.3509 120.906C86.7853 121.024 84.6658 118.986 84.5543 116.389C84.5543 113.792 86.5622 111.652 89.1278 111.534C91.6377 111.534 93.7013 113.515 93.7571 116.056C93.8687 118.653 91.8608 120.798 89.3509 120.906ZM66.3713 120.906C63.8057 121.024 61.6863 118.986 61.5747 116.389C61.5747 113.792 63.5826 111.652 66.1482 111.534C68.6581 111.534 70.7218 113.515 70.7776 116.056C70.8891 118.653 68.8812 120.798 66.3713 120.906ZM112.107 91.1019C109.541 91.1584 107.533 93.2473 107.533 95.8443V95.9007C107.589 98.4921 109.708 100.468 112.274 100.412C114.784 100.361 116.792 98.2154 116.736 95.6184C116.625 93.1287 114.617 91.1019 112.107 91.1019Z"/>
</mask>
<path fill-rule="evenodd" clip-rule="evenodd" d="M61.6318 95.9007C61.7433 98.4921 63.8627 100.53 66.4284 100.412C68.9383 100.304 70.9462 98.159 70.8346 95.5563C70.7788 93.0214 68.7152 91.0398 66.2053 91.0398C63.6396 91.1584 61.6318 93.3037 61.6318 95.9007ZM84.5543 95.9007C84.6658 98.4921 86.7853 100.53 89.3509 100.412C91.8608 100.304 93.8687 98.159 93.7571 95.5563C93.7013 93.0214 91.6377 91.0398 89.1278 91.0398C86.5622 91.1584 84.5543 93.3037 84.5543 95.9007ZM107.478 116.388C107.478 118.985 109.541 121.131 112.107 121.187C114.728 121.187 116.848 119.042 116.848 116.388C116.848 113.741 114.728 111.595 112.107 111.595H112.051C109.486 111.652 107.422 113.791 107.478 116.388ZM89.3509 120.906C86.7853 121.024 84.6658 118.986 84.5543 116.389C84.5543 113.792 86.5622 111.652 89.1278 111.534C91.6377 111.534 93.7013 113.515 93.7571 116.056C93.8687 118.653 91.8608 120.798 89.3509 120.906ZM66.3713 120.906C63.8057 121.024 61.6863 118.986 61.5747 116.389C61.5747 113.792 63.5826 111.652 66.1482 111.534C68.6581 111.534 70.7218 113.515 70.7776 116.056C70.8891 118.653 68.8812 120.798 66.3713 120.906ZM112.107 91.1019C109.541 91.1584 107.533 93.2473 107.533 95.8443V95.9007C107.589 98.4921 109.708 100.468 112.274 100.412C114.784 100.361 116.792 98.2154 116.736 95.6184C116.625 93.1287 114.617 91.1019 112.107 91.1019Z" fill="url(#paint4_linear_6509_1922)"/>
<path d="M66.4284 100.412L66.4048 99.859L66.4029 99.8591L66.4284 100.412ZM61.6318 95.9007H61.0787V95.9126L61.0792 95.9245L61.6318 95.9007ZM70.8346 95.5563L70.2816 95.5685L70.2821 95.58L70.8346 95.5563ZM66.2053 91.0398V90.4868H66.1925L66.1798 90.4873L66.2053 91.0398ZM89.3509 100.412L89.3273 99.859L89.3254 99.8591L89.3509 100.412ZM84.5543 95.9007H84.0012V95.9126L84.0017 95.9245L84.5543 95.9007ZM93.7571 95.5563L93.2041 95.5685L93.2046 95.58L93.7571 95.5563ZM89.1278 91.0398V90.4868H89.115L89.1023 90.4873L89.1278 91.0398ZM112.107 121.187L112.095 121.74H112.107V121.187ZM107.478 116.388H108.031L108.031 116.377L107.478 116.388ZM112.051 111.595V111.042L112.039 111.042L112.051 111.595ZM84.5543 116.389H84.0012V116.401L84.0017 116.413L84.5543 116.389ZM89.3509 120.906L89.3273 120.353L89.3254 120.353L89.3509 120.906ZM89.1278 111.534V110.981H89.115L89.1023 110.981L89.1278 111.534ZM93.7571 116.056L93.2041 116.068L93.2046 116.08L93.7571 116.056ZM61.5747 116.389H61.0217V116.401L61.0222 116.413L61.5747 116.389ZM66.3713 120.906L66.3477 120.353L66.3458 120.353L66.3713 120.906ZM66.1482 111.534V110.981H66.1355L66.1227 110.981L66.1482 111.534ZM70.7776 116.056L70.2245 116.068L70.225 116.08L70.7776 116.056ZM112.107 91.1019V90.5487L112.095 90.549L112.107 91.1019ZM107.533 95.9007H106.98L106.98 95.9126L107.533 95.9007ZM112.274 100.412L112.263 99.8587L112.262 99.8587L112.274 100.412ZM116.736 95.6184L117.289 95.6065L117.289 95.5937L116.736 95.6184ZM66.4029 99.8591C64.1609 99.9627 62.2835 98.1807 62.1843 95.8769L61.0792 95.9245C61.2032 98.8034 63.5645 101.098 66.4539 100.964L66.4029 99.8591ZM70.2821 95.58C70.3806 97.8784 68.6085 99.7649 66.4048 99.859L66.452 100.964C69.268 100.844 71.5117 98.4395 71.3871 95.5326L70.2821 95.58ZM66.2053 91.5928C68.4184 91.5928 70.2326 93.3381 70.2817 95.5685L71.3875 95.5442C71.325 92.7048 69.012 90.4868 66.2053 90.4868V91.5928ZM62.1848 95.9007C62.1848 93.5909 63.9687 91.6968 66.2308 91.5922L66.1798 90.4873C63.3106 90.6199 61.0787 93.0166 61.0787 95.9007H62.1848ZM89.3254 99.8591C87.0835 99.9627 85.206 98.1807 85.1068 95.8769L84.0017 95.9245C84.1257 98.8034 86.4871 101.098 89.3764 100.964L89.3254 99.8591ZM93.2046 95.58C93.3031 97.8784 91.531 99.7649 89.3273 99.859L89.3745 100.964C92.1905 100.844 94.4342 98.4395 94.3096 95.5326L93.2046 95.58ZM89.1278 91.5928C91.3409 91.5928 93.1551 93.3381 93.2042 95.5685L94.31 95.5442C94.2475 92.7048 91.9345 90.4868 89.1278 90.4868V91.5928ZM85.1073 95.9007C85.1073 93.5909 86.8912 91.6968 89.1533 91.5922L89.1023 90.4873C86.2331 90.6199 84.0012 93.0166 84.0012 95.9007H85.1073ZM112.119 120.634C109.862 120.585 108.031 118.692 108.031 116.388H106.925C106.925 119.278 109.221 121.677 112.095 121.74L112.119 120.634ZM116.295 116.388C116.295 118.743 114.417 120.634 112.107 120.634V121.74C115.04 121.74 117.401 119.341 117.401 116.388H116.295ZM112.107 112.148C114.417 112.148 116.295 114.04 116.295 116.388H117.401C117.401 113.441 115.04 111.042 112.107 111.042V112.148ZM112.051 112.148H112.107V111.042H112.051V112.148ZM108.031 116.377C107.981 114.085 109.803 112.198 112.063 112.148L112.039 111.042C109.168 111.106 106.862 113.498 106.925 116.4L108.031 116.377ZM84.0017 116.413C84.1256 119.297 86.4866 121.592 89.3764 121.458L89.3254 120.353C87.0839 120.457 85.206 118.675 85.1068 116.365L84.0017 116.413ZM89.1023 110.981C86.234 111.114 84.0012 113.504 84.0012 116.389H85.1073C85.1073 114.08 86.8903 112.191 89.1533 112.086L89.1023 110.981ZM94.31 116.044C94.2476 113.199 91.9349 110.981 89.1278 110.981V112.087C91.3404 112.087 93.1551 113.832 93.2042 116.068L94.31 116.044ZM89.3745 121.458C92.1901 121.338 94.4343 118.934 94.3096 116.032L93.2046 116.08C93.303 118.372 91.5315 120.259 89.3273 120.353L89.3745 121.458ZM61.0222 116.413C61.1461 119.297 63.5071 121.592 66.3969 121.458L66.3458 120.353C64.1043 120.457 62.2265 118.675 62.1272 116.365L61.0222 116.413ZM66.1227 110.981C63.2544 111.114 61.0217 113.504 61.0217 116.389H62.1278C62.1278 114.08 63.9108 112.191 66.1738 112.086L66.1227 110.981ZM71.3305 116.044C71.268 113.199 68.9553 110.981 66.1482 110.981V112.087C68.3609 112.087 70.1755 113.832 70.2246 116.068L71.3305 116.044ZM66.395 121.458C69.2105 121.338 71.4547 118.934 71.3301 116.032L70.225 116.08C70.3235 118.372 68.5519 120.259 66.3477 120.353L66.395 121.458ZM108.086 95.8443C108.086 93.5401 109.862 91.7045 112.119 91.6548L112.095 90.549C109.22 90.6122 106.98 92.9544 106.98 95.8443H108.086ZM108.086 95.9007V95.8443H106.98V95.9007H108.086ZM112.262 99.8587C109.995 99.9086 108.135 98.1682 108.086 95.8888L106.98 95.9126C107.043 98.8159 109.422 101.028 112.286 100.964L112.262 99.8587ZM116.183 95.6303C116.233 97.9365 114.453 99.8143 112.263 99.8587L112.285 100.965C115.115 100.907 117.351 98.4944 117.289 95.6066L116.183 95.6303ZM112.107 91.6549C114.305 91.6549 116.085 93.4333 116.184 95.6432L117.289 95.5937C117.164 92.8241 114.928 90.5489 112.107 90.5489V91.6549Z" fill="url(#paint5_linear_6509_1922)" mask="url(#path-7-inside-3_6509_1922)"/>
</g>
<g opacity="0.5" filter="url(#filter4_b_6509_1922)">
<path d="M43.5628 71.6924C43.5628 74.0907 45.4202 75.987 47.9099 75.987L128.388 75.987C130.878 75.987 132.741 74.0907 132.741 71.6924C132.741 69.2383 130.878 67.3977 128.388 67.3977L47.91 67.3977C45.4202 67.3977 43.5628 69.2383 43.5628 71.6924Z" fill="url(#paint6_linear_6509_1922)" fill-opacity="0.5"/>
</g>
<defs>
<filter id="filter0_f_6509_1922" x="0.179581" y="0.804153" width="126.064" height="133.336" filterUnits="userSpaceOnUse" color-interpolation-filters="sRGB">
<feFlood flood-opacity="0" result="BackgroundImageFix"/>
<feBlend mode="normal" in="SourceGraphic" in2="BackgroundImageFix" result="shape"/>
<feGaussianBlur stdDeviation="13.1348" result="effect1_foregroundBlur_6509_1922"/>
</filter>
<filter id="filter1_b_6509_1922" x="3.81292" y="4.1433" width="170.752" height="173.633" filterUnits="userSpaceOnUse" color-interpolation-filters="sRGB">
<feFlood flood-opacity="0" result="BackgroundImageFix"/>
<feGaussianBlur in="BackgroundImage" stdDeviation="16.5913"/>
<feComposite in2="SourceAlpha" operator="in" result="effect1_backgroundBlur_6509_1922"/>
<feBlend mode="normal" in="SourceGraphic" in2="effect1_backgroundBlur_6509_1922" result="shape"/>
</filter>
<filter id="filter2_bd_6509_1922" x="43.2942" y="9.55749" width="91.7889" height="67.3919" filterUnits="userSpaceOnUse" color-interpolation-filters="sRGB">
<feFlood flood-opacity="0" result="BackgroundImageFix"/>
<feGaussianBlur in="BackgroundImage" stdDeviation="10.3696"/>
<feComposite in2="SourceAlpha" operator="in" result="effect1_backgroundBlur_6509_1922"/>
<feColorMatrix in="SourceAlpha" type="matrix" values="0 0 0 0 0 0 0 0 0 0 0 0 0 0 0 0 0 0 127 0" result="hardAlpha"/>
<feOffset dx="6.91305" dy="6.91305"/>
<feGaussianBlur stdDeviation="6.91305"/>
<feColorMatrix type="matrix" values="0 0 0 0 1 0 0 0 0 0.537255 0 0 0 0 0.160784 0 0 0 0.2 0"/>
<feBlend mode="normal" in2="effect1_backgroundBlur_6509_1922" result="effect2_dropShadow_6509_1922"/>
<feBlend mode="normal" in="SourceGraphic" in2="effect2_dropShadow_6509_1922" result="shape"/>
</filter>
<filter id="filter3_bd_6509_1922" x="40.8356" y="70.3007" width="96.7514" height="71.6257" filterUnits="userSpaceOnUse" color-interpolation-filters="sRGB">
<feFlood flood-opacity="0" result="BackgroundImageFix"/>
<feGaussianBlur in="BackgroundImage" stdDeviation="10.3696"/>
<feComposite in2="SourceAlpha" operator="in" result="effect1_backgroundBlur_6509_1922"/>
<feColorMatrix in="SourceAlpha" type="matrix" values="0 0 0 0 0 0 0 0 0 0 0 0 0 0 0 0 0 0 127 0" result="hardAlpha"/>
<feOffset dx="6.91305" dy="6.91305"/>
<feGaussianBlur stdDeviation="6.91305"/>
<feColorMatrix type="matrix" values="0 0 0 0 1 0 0 0 0 0.52549 0 0 0 0 0.137255 0 0 0 0.5 0"/>
<feBlend mode="normal" in2="effect1_backgroundBlur_6509_1922" result="effect2_dropShadow_6509_1922"/>
<feBlend mode="normal" in="SourceGraphic" in2="effect2_dropShadow_6509_1922" result="shape"/>
</filter>
<filter id="filter4_b_6509_1922" x="22.8237" y="46.6586" width="130.657" height="50.0676" filterUnits="userSpaceOnUse" color-interpolation-filters="sRGB">
<feFlood flood-opacity="0" result="BackgroundImageFix"/>
<feGaussianBlur in="BackgroundImage" stdDeviation="10.3696"/>
<feComposite in2="SourceAlpha" operator="in" result="effect1_backgroundBlur_6509_1922"/>
<feBlend mode="normal" in="SourceGraphic" in2="effect1_backgroundBlur_6509_1922" result="shape"/>
</filter>
<linearGradient id="paint0_linear_6509_1922" x1="87.2792" y1="20.6551" x2="46.8553" y2="117.022" gradientUnits="userSpaceOnUse">
<stop stop-color="#FFB37F"/>
<stop offset="1" stop-color="#FF7B0D"/>
</linearGradient>
<linearGradient id="paint1_linear_6509_1922" x1="54.5547" y1="50.8831" x2="121.585" y2="131.613" gradientUnits="userSpaceOnUse">
<stop stop-color="white" stop-opacity="0.25"/>
<stop offset="1" stop-color="white" stop-opacity="0"/>
</linearGradient>
<linearGradient id="paint2_linear_6509_1922" x1="111.311" y1="52.1888" x2="112.822" y2="32.7252" gradientUnits="userSpaceOnUse">
<stop stop-color="white"/>
<stop offset="1" stop-color="white" stop-opacity="0.2"/>
</linearGradient>
<linearGradient id="paint3_linear_6509_1922" x1="109.928" y1="34.2149" x2="130.384" y2="41.8876" gradientUnits="userSpaceOnUse">
<stop stop-color="white" stop-opacity="0.25"/>
<stop offset="1" stop-color="white" stop-opacity="0"/>
</linearGradient>
<linearGradient id="paint4_linear_6509_1922" x1="112.929" y1="96.4838" x2="19.7348" y2="90.3435" gradientUnits="userSpaceOnUse">
<stop stop-color="white"/>
<stop offset="1" stop-color="white" stop-opacity="0.2"/>
</linearGradient>
<linearGradient id="paint5_linear_6509_1922" x1="70.3733" y1="94.552" x2="84.8858" y2="127.506" gradientUnits="userSpaceOnUse">
<stop stop-color="white" stop-opacity="0.25"/>
<stop offset="1" stop-color="white" stop-opacity="0"/>
</linearGradient>
<linearGradient id="paint6_linear_6509_1922" x1="67.6324" y1="71.5712" x2="64.4349" y2="61.5564" gradientUnits="userSpaceOnUse">
<stop stop-color="white"/>
<stop offset="1" stop-color="white" stop-opacity="0.2"/>
</linearGradient>
</defs>
</svg>
