<svg width="24" height="24" viewBox="0 0 24 24" fill="none" xmlns="http://www.w3.org/2000/svg">
<path fill-rule="evenodd" clip-rule="evenodd" d="M18 3H6H6C4.34315 3 3 4.34315 3 6V6V18V18C3 19.6568 4.34315 21 6 21H18V21C19.6568 21 21 19.6568 21 18V6V6C21 4.34315 19.6568 3 18 3V3ZM14.7119 13.2899V13.2899C15.104 13.6789 15.1066 14.312 14.7177 14.7041C14.7158 14.7061 14.7138 14.708 14.7119 14.7099V14.7099C14.323 15.1021 13.6898 15.1047 13.2977 14.7157C13.2957 14.7138 13.2938 14.7119 13.2919 14.7099L12.0019 13.4099L10.7119 14.7099V14.7099C10.323 15.1021 9.68981 15.1047 9.29769 14.7157C9.29575 14.7138 9.29382 14.7119 9.29189 14.7099V14.7099C8.89977 14.321 8.89717 13.6879 9.28609 13.2957C9.28802 13.2938 9.28995 13.2919 9.29189 13.2899L10.5919 11.9999L9.29189 10.7099V10.7099C8.89977 10.3178 8.89977 9.68206 9.29189 9.28994C9.68401 8.89782 10.3198 8.89782 10.7119 9.28994L12.0019 10.5899L13.2919 9.28994V9.28994C13.684 8.89782 14.3198 8.89782 14.7119 9.28994C15.104 9.68206 15.104 10.3178 14.7119 10.7099L13.4119 11.9999L14.7119 13.2899Z" fill="#007AFF"/>
</svg>
