<svg width="33" height="33" viewBox="0 0 33 33" fill="none" xmlns="http://www.w3.org/2000/svg">
<g filter="url(#filter0_b_6509_1901)">
<mask id="path-1-outside-1_6509_1901" maskUnits="userSpaceOnUse" x="0" y="0" width="33" height="33" fill="black">
<rect fill="white" width="33" height="33"/>
<path d="M23.0804 1H9.73053C4.51069 1 1 4.66467 1 10.1155V22.6954C1 28.1308 4.51069 31.7955 9.73053 31.7955H23.0804C28.3002 31.7955 31.7955 28.1308 31.7955 22.6954V10.1155C31.7955 4.66467 28.3002 1 23.0804 1Z"/>
</mask>
<path d="M23.0804 1H9.73053C4.51069 1 1 4.66467 1 10.1155V22.6954C1 28.1308 4.51069 31.7955 9.73053 31.7955H23.0804C28.3002 31.7955 31.7955 28.1308 31.7955 22.6954V10.1155C31.7955 4.66467 28.3002 1 23.0804 1Z" fill="#EB6F0A" fill-opacity="0.46"/>
<path d="M23.0804 1.37709C23.2886 1.37709 23.4575 1.20826 23.4575 1C23.4575 0.79174 23.2886 0.622912 23.0804 0.622912V1.37709ZM23.0804 0.622912C22.8721 0.622912 22.7033 0.79174 22.7033 1C22.7033 1.20826 22.8721 1.37709 23.0804 1.37709V0.622912ZM23.0804 0.622912H9.73053V1.37709H23.0804V0.622912ZM9.73053 0.622912C7.02906 0.622912 4.74422 1.5733 3.1355 3.25285C1.52813 4.93098 0.622912 7.30833 0.622912 10.1155H1.37709C1.37709 7.47181 2.22721 5.29142 3.68015 3.77452C5.13173 2.25903 7.21216 1.37709 9.73053 1.37709V0.622912ZM0.622912 10.1155V22.6954H1.37709V10.1155H0.622912ZM0.622912 22.6954C0.622912 25.4952 1.5283 27.8687 3.13566 29.5448C4.74434 31.2222 7.02908 32.1726 9.73053 32.1726V31.4184C7.21214 31.4184 5.13162 30.5365 3.67999 29.0228C2.22704 27.5077 1.37709 25.3311 1.37709 22.6954H0.622912ZM9.73053 32.1726H23.0804V31.4184H9.73053V32.1726ZM23.0804 32.1726C25.7819 32.1726 28.063 31.2222 29.6679 29.5444C31.2713 27.8682 32.1726 25.4947 32.1726 22.6954H31.4184C31.4184 25.3316 30.572 27.5082 29.1229 29.0231C27.6752 30.5365 25.5987 31.4184 23.0804 31.4184V32.1726ZM32.1726 22.6954V10.1155H31.4184V22.6954H32.1726ZM32.1726 10.1155C32.1726 7.30879 31.2715 4.93149 29.668 3.25319C28.0631 1.57336 25.7819 0.622912 23.0804 0.622912V1.37709C25.5987 1.37709 27.6751 2.25897 29.1227 3.77418C30.5719 5.29092 31.4184 7.47135 31.4184 10.1155H32.1726Z" fill="white" mask="url(#path-1-outside-1_6509_1901)"/>
</g>
<g filter="url(#filter1_bd_6509_1901)">
<mask id="path-3-inside-2_6509_1901" fill="white">
<path d="M14.57 21.3989C14.2251 21.3989 13.8802 21.268 13.6169 21.0047L9.96301 17.3508C9.4364 16.8242 9.4364 15.9712 9.96301 15.4461C10.4896 14.9195 11.3411 14.918 11.8677 15.4446L14.57 18.1469L20.9262 11.7907C21.4528 11.2641 22.3043 11.2641 22.8309 11.7907C23.3575 12.3173 23.3575 13.1703 22.8309 13.6969L15.5231 21.0047C15.2598 21.268 14.9149 21.3989 14.57 21.3989Z"/>
</mask>
<path d="M14.57 21.3989C14.2251 21.3989 13.8802 21.268 13.6169 21.0047L9.96301 17.3508C9.4364 16.8242 9.4364 15.9712 9.96301 15.4461C10.4896 14.9195 11.3411 14.918 11.8677 15.4446L14.57 18.1469L20.9262 11.7907C21.4528 11.2641 22.3043 11.2641 22.8309 11.7907C23.3575 12.3173 23.3575 13.1703 22.8309 13.6969L15.5231 21.0047C15.2598 21.268 14.9149 21.3989 14.57 21.3989Z" fill="url(#paint0_linear_6509_1901)"/>
<path d="M9.96301 15.4461L10.0163 15.4995L10.0163 15.4995L9.96301 15.4461ZM14.57 18.1469L14.5167 18.2002L14.57 18.2536L14.6233 18.2002L14.57 18.1469ZM22.8309 13.6969L22.7776 13.6436L22.8309 13.6969ZM15.5231 21.0047L15.5765 21.0581L15.5231 21.0047ZM14.57 21.3235C14.2442 21.3235 13.9187 21.1999 13.6702 20.9514L13.5636 21.0581C13.8416 21.3361 14.206 21.4743 14.57 21.4743V21.3235ZM13.6702 20.9514L10.0163 17.2975L9.90968 17.4042L13.5636 21.0581L13.6702 20.9514ZM10.0163 17.2975C9.51914 16.8003 9.51925 15.9951 10.0163 15.4995L9.90976 15.3927C9.35355 15.9473 9.35367 16.8482 9.90968 17.4042L10.0163 17.2975ZM10.0163 15.4995C10.5136 15.0022 11.3173 15.0009 11.8144 15.4979L11.921 15.3913C11.3649 14.8351 10.4656 14.8369 9.90968 15.3928L10.0163 15.4995ZM11.8144 15.4979L14.5167 18.2002L14.6233 18.0936L11.921 15.3913L11.8144 15.4979ZM14.6233 18.2002L20.9795 11.844L20.8729 11.7374L14.5167 18.0936L14.6233 18.2002ZM20.9795 11.844C21.4767 11.3469 22.2804 11.3469 22.7776 11.844L22.8842 11.7374C22.3282 11.1813 21.4289 11.1813 20.8729 11.7374L20.9795 11.844ZM22.7776 11.844C23.2747 12.3412 23.2747 13.1465 22.7776 13.6436L22.8842 13.7503C23.4403 13.1942 23.4403 12.2934 22.8842 11.7374L22.7776 11.844ZM22.7776 13.6436L15.4698 20.9514L15.5765 21.0581L22.8842 13.7503L22.7776 13.6436ZM15.4698 20.9514C15.2213 21.1999 14.8958 21.3235 14.57 21.3235V21.4743C14.934 21.4743 15.2984 21.3361 15.5765 21.0581L15.4698 20.9514Z" fill="white" mask="url(#path-3-inside-2_6509_1901)"/>
</g>
<defs>
<filter id="filter0_b_6509_1901" x="-8.42719" y="-8.42731" width="49.6499" height="49.65" filterUnits="userSpaceOnUse" color-interpolation-filters="sRGB">
<feFlood flood-opacity="0" result="BackgroundImageFix"/>
<feGaussianBlur in="BackgroundImage" stdDeviation="4.52505"/>
<feComposite in2="SourceAlpha" operator="in" result="effect1_backgroundBlur_6509_1901"/>
<feBlend mode="normal" in="SourceGraphic" in2="effect1_backgroundBlur_6509_1901" result="shape"/>
</filter>
<filter id="filter1_bd_6509_1901" x="3.91174" y="5.73943" width="24.9705" height="21.3158" filterUnits="userSpaceOnUse" color-interpolation-filters="sRGB">
<feFlood flood-opacity="0" result="BackgroundImageFix"/>
<feGaussianBlur in="BackgroundImage" stdDeviation="2.82816"/>
<feComposite in2="SourceAlpha" operator="in" result="effect1_backgroundBlur_6509_1901"/>
<feColorMatrix in="SourceAlpha" type="matrix" values="0 0 0 0 0 0 0 0 0 0 0 0 0 0 0 0 0 0 127 0" result="hardAlpha"/>
<feOffset dx="1.88544" dy="1.88544"/>
<feGaussianBlur stdDeviation="1.88544"/>
<feColorMatrix type="matrix" values="0 0 0 0 0 0 0 0 0 0.478431 0 0 0 0 1 0 0 0 0.5 0"/>
<feBlend mode="normal" in2="effect1_backgroundBlur_6509_1901" result="effect2_dropShadow_6509_1901"/>
<feBlend mode="normal" in="SourceGraphic" in2="effect2_dropShadow_6509_1901" result="shape"/>
</filter>
<linearGradient id="paint0_linear_6509_1901" x1="22.2575" y1="13.2021" x2="7.05798" y2="13.8788" gradientUnits="userSpaceOnUse">
<stop stop-color="white"/>
<stop offset="1" stop-color="white" stop-opacity="0.2"/>
</linearGradient>
</defs>
</svg>
