<svg width="24" height="24" viewBox="0 0 24 24" fill="none" xmlns="http://www.w3.org/2000/svg">
<path d="M12.0004 3.27295C9.63027 3.27295 9.33283 3.28331 8.40195 3.32568C7.47288 3.36822 6.83872 3.51531 6.28383 3.73113C5.70984 3.95404 5.22295 4.25222 4.73787 4.73749C4.25243 5.22259 3.95426 5.70949 3.73063 6.28331C3.51427 6.8384 3.367 7.47277 3.32519 8.40149C3.28355 9.3324 3.27264 9.63004 3.27264 12.0002C3.27264 14.3704 3.28319 14.667 3.32537 15.5979C3.3681 16.5269 3.51518 17.1611 3.73081 17.716C3.9539 18.29 4.25207 18.7769 4.73733 19.262C5.22222 19.7475 5.70912 20.0464 6.28274 20.2693C6.83799 20.4851 7.47234 20.6322 8.40122 20.6748C9.3321 20.7171 9.62936 20.7275 11.9993 20.7275C14.3696 20.7275 14.6661 20.7171 15.597 20.6748C16.5261 20.6322 17.161 20.4851 17.7162 20.2693C18.29 20.0464 18.7762 19.7475 19.2611 19.262C19.7465 18.7769 20.0447 18.29 20.2683 17.7162C20.4829 17.1611 20.6301 16.5268 20.6738 15.598C20.7156 14.6671 20.7265 14.3704 20.7265 12.0002C20.7265 9.63004 20.7156 9.33259 20.6738 8.40168C20.6301 7.47259 20.4829 6.8384 20.2683 6.28349C20.0447 5.70949 19.7465 5.22259 19.2611 4.73749C18.7756 4.25204 18.2902 3.95386 17.7157 3.73113C17.1593 3.51531 16.5248 3.36822 15.5957 3.32568C14.6648 3.28331 14.3685 3.27295 11.9977 3.27295H12.0004ZM11.2175 4.84568C11.4499 4.84531 11.7091 4.84568 12.0004 4.84568C14.3305 4.84568 14.6067 4.85404 15.5268 4.89586C16.3777 4.93477 16.8395 5.07695 17.1471 5.1964C17.5544 5.35459 17.8448 5.54368 18.15 5.84913C18.4555 6.15459 18.6445 6.44549 18.8031 6.85277C18.9225 7.16004 19.0649 7.62186 19.1036 8.47277C19.1454 9.39277 19.1545 9.66913 19.1545 11.9982C19.1545 14.3273 19.1454 14.6037 19.1036 15.5237C19.0647 16.3746 18.9225 16.8364 18.8031 17.1437C18.6449 17.551 18.4555 17.841 18.15 18.1462C17.8446 18.4517 17.5546 18.6408 17.1471 18.7989C16.8399 18.9189 16.3777 19.0608 15.5268 19.0997C14.6068 19.1415 14.3305 19.1506 12.0004 19.1506C9.67009 19.1506 9.39392 19.1415 8.47394 19.0997C7.62306 19.0604 7.16125 18.9182 6.85345 18.7988C6.44619 18.6406 6.15528 18.4515 5.84984 18.146C5.54439 17.8406 5.35531 17.5504 5.19677 17.143C5.07732 16.8357 4.93496 16.3739 4.89623 15.5229C4.85441 14.6029 4.84605 14.3266 4.84605 11.996C4.84605 9.66549 4.85441 9.39059 4.89623 8.47059C4.93514 7.61968 5.07732 7.15786 5.19677 6.85022C5.35495 6.44295 5.54439 6.15204 5.84984 5.84659C6.15528 5.54113 6.44619 5.35204 6.85345 5.19349C7.16107 5.07349 7.62306 4.93168 8.47394 4.89259C9.27901 4.85622 9.591 4.84531 11.2175 4.84349V4.84568ZM16.6588 6.29477C16.0806 6.29477 15.6115 6.76331 15.6115 7.34168C15.6115 7.91986 16.0806 8.38895 16.6588 8.38895C17.237 8.38895 17.706 7.91986 17.706 7.34168C17.706 6.76349 17.237 6.2944 16.6588 6.2944V6.29477ZM12.0004 7.5184C9.52537 7.5184 7.5187 9.52513 7.5187 12.0002C7.5187 14.4753 9.52537 16.4811 12.0004 16.4811C14.4754 16.4811 16.4813 14.4753 16.4813 12.0002C16.4813 9.52513 14.4752 7.5184 12.0002 7.5184H12.0004ZM12.0004 9.09113C13.6069 9.09113 14.9094 10.3935 14.9094 12.0002C14.9094 13.6068 13.6069 14.9093 12.0004 14.9093C10.3937 14.9093 9.09138 13.6068 9.09138 12.0002C9.09138 10.3935 10.3937 9.09113 12.0004 9.09113Z" fill="#0F0F0F"/>
</svg>
