<svg width="18" height="18" viewBox="0 0 18 18" fill="none" xmlns="http://www.w3.org/2000/svg">
<g clip-path="url(#clip0_6803_1861)">
<path d="M15.1066 15.2106H12.4351V11.0681C12.4351 10.0803 12.4173 8.80868 11.0457 8.80868C9.65426 8.80868 9.44137 9.88494 9.44137 10.9962V15.2103H6.76985V6.69169H9.3345V7.85585H9.37041C9.62707 7.42134 9.99795 7.06388 10.4436 6.82156C10.8892 6.57924 11.3928 6.46113 11.9008 6.4798C14.6085 6.4798 15.1077 8.24327 15.1077 10.5374L15.1066 15.2106ZM3.75551 5.52726C3.44889 5.52731 3.14913 5.43734 2.89415 5.26871C2.63917 5.10008 2.44044 4.86038 2.32305 4.57991C2.20566 4.29943 2.17489 3.9908 2.23466 3.69302C2.29442 3.39524 2.44203 3.12169 2.65881 2.90698C2.87558 2.69226 3.15179 2.54601 3.45251 2.48673C3.75323 2.42744 4.06495 2.45779 4.34825 2.57392C4.63155 2.69005 4.87371 2.88676 5.04411 3.13917C5.2145 3.39157 5.30549 3.68834 5.30554 3.99194C5.30558 4.19353 5.26551 4.39314 5.18763 4.5794C5.10976 4.76565 4.9956 4.93489 4.85167 5.07746C4.70774 5.22003 4.53684 5.33313 4.34876 5.4103C4.16068 5.48748 3.9591 5.52722 3.75551 5.52726ZM5.09126 15.2106H2.41697V6.69169H5.09126V15.2106ZM16.4385 0.000728003H1.07455C0.725829 -0.00316852 0.389798 0.130176 0.140322 0.371459C-0.109153 0.612743 -0.251664 0.942225 -0.25592 1.2875V16.5632C-0.25181 16.9087 -0.109383 17.2384 0.140085 17.4799C0.389552 17.7215 0.725657 17.8551 1.07455 17.8514H16.4385C16.7881 17.8557 17.1251 17.7225 17.3756 17.481C17.626 17.2395 17.7694 16.9094 17.7742 16.5632V1.2864C17.7693 0.940438 17.6258 0.610581 17.3753 0.369304C17.1248 0.128026 16.7879 -0.00493746 16.4385 -0.000374607" fill="#0F0F0F"/>
</g>
<defs>
<clipPath id="clip0_6803_1861">
<rect width="18" height="18" fill="white"/>
</clipPath>
</defs>
</svg>
