<svg width="20" height="186" viewBox="0 0 20 186" fill="none" xmlns="http://www.w3.org/2000/svg">
<path d="M3 0.113249L0.113249 3L3 5.88675L5.88675 3L3 0.113249ZM19.8868 44.8064L17 41.9197L14.1132 44.8064L17 47.6932L19.8868 44.8064ZM19.8868 115.065L17 112.178L14.1132 115.065L17 117.951L19.8868 115.065ZM19.8868 183L17 180.113L14.1132 183L17 185.887L19.8868 183ZM2.5 3V5.09032H3.5V3H2.5ZM2.5 9.27097V13.4516H3.5V9.27097H2.5ZM2.5 17.6323V21.8129H3.5V17.6323H2.5ZM2.5 25.9935V30.1742H3.5V25.9935H2.5ZM2.5 34.3548V38.5355H3.5V34.3548H2.5ZM2.5 42.7161V44.8064H3.5V42.7161H2.5ZM3 45.3064H4.75V44.3064H3V45.3064ZM8.25 45.3064H11.75V44.3064H8.25V45.3064ZM15.25 45.3064H17V44.3064H15.25V45.3064ZM2.5 44.8064V46.7581H3.5V44.8064H2.5ZM2.5 50.6613V54.5645H3.5V50.6613H2.5ZM2.5 58.4677V62.371H3.5V58.4677H2.5ZM2.5 66.2742V70.1774H3.5V66.2742H2.5ZM2.5 74.0806V77.9839H3.5V74.0806H2.5ZM2.5 81.8871V85.7903H3.5V81.8871H2.5ZM2.5 89.6935V93.5968H3.5V89.6935H2.5ZM2.5 97.5V101.403H3.5V97.5H2.5ZM2.5 105.306V109.21H3.5V105.306H2.5ZM2.5 113.113V115.065H3.5V113.113H2.5ZM3 115.565H4.75V114.565H3V115.565ZM8.25 115.565H11.75V114.565H8.25V115.565ZM15.25 115.565H17V114.565H15.25V115.565ZM2.5 115.065V117.205H3.5V115.065H2.5ZM2.5 121.486V125.767H3.5V121.486H2.5ZM2.5 130.048V134.329H3.5V130.048H2.5ZM2.5 138.611V142.892H3.5V138.611H2.5ZM2.5 147.173V151.454H3.5V147.173H2.5ZM2.5 155.735V160.016H3.5V155.735H2.5ZM2.5 164.297V168.578H3.5V164.297H2.5ZM2.5 172.859V175H3.5V172.859H2.5ZM2.5 175C2.5 175.567 2.55559 176.122 2.66178 176.658L3.64277 176.464C3.54916 175.991 3.5 175.502 3.5 175H2.5ZM3.93199 179.723C4.55242 180.65 5.35019 181.448 6.27692 182.068L6.83324 181.237C6.01513 180.689 5.31067 179.985 4.76296 179.167L3.93199 179.723ZM9.34167 183.338C9.87842 183.444 10.433 183.5 11 183.5V182.5C10.4985 182.5 10.0089 182.451 9.53574 182.357L9.34167 183.338ZM11 183.5H12.5V182.5H11V183.5ZM15.5 183.5H17V182.5H15.5V183.5Z" fill="#878787"/>
</svg>
