<svg width="36" height="36" viewBox="0 0 36 36" fill="none" xmlns="http://www.w3.org/2000/svg">
<path d="M19.5912 17.6292L23.9272 13.2932L9.92212 5.42185C8.99393 4.92036 8.12438 4.84998 7.36188 5.39839L19.5912 17.6292ZM24.6662 22.7057L29.1738 20.1704C30.0536 19.6777 30.536 18.9797 30.536 18.2055C30.536 17.4327 30.0536 16.7332 29.1752 16.2406L25.0944 13.9487L20.5003 18.5413L24.6662 22.7057ZM6.60818 6.46443C6.51434 6.7533 6.46155 7.07589 6.46155 7.42928V28.9919C6.46155 29.5506 6.58472 30.0315 6.80761 30.4143L18.6806 18.5398L6.60818 6.46443ZM19.5912 19.4489L7.78419 31.2574C8.01001 31.3439 8.25342 31.3894 8.51003 31.3894C8.96753 31.3894 9.4441 31.2545 9.92946 30.9847L23.5005 23.3641L19.5912 19.4489Z" fill="white"/>
</svg>
