<svg width="41" height="39" viewBox="0 0 41 39" fill="none" xmlns="http://www.w3.org/2000/svg">
<path d="M34.7835 4.56899L23.9495 1.66605C20.0198 0.613078 17.1152 2.30097 16.0588 6.24363L12.4808 19.597C11.407 23.6043 13.0924 26.4666 17.0221 27.5196L27.856 30.4225C31.8491 31.4925 34.6752 29.839 35.7489 25.8317L39.327 12.4783C40.3834 8.53566 38.7765 5.63893 34.7835 4.56899Z" fill="url(#paint0_linear_6474_1826)"/>
<g opacity="0.5" filter="url(#filter0_f_6474_1826)">
<path d="M31.9528 8.22569L24.5715 6.24789C21.8941 5.53049 19.9152 6.68046 19.1955 9.36664L16.7577 18.4644C16.0262 21.1946 17.1744 23.1448 19.8518 23.8622L27.233 25.84C29.9536 26.5689 31.879 25.4424 32.6106 22.7122L35.0483 13.6144C35.7681 10.9282 34.6733 8.95465 31.9528 8.22569Z" fill="#007AFF"/>
</g>
<g filter="url(#filter1_b_6474_1826)">
<mask id="path-3-outside-1_6474_1826" maskUnits="userSpaceOnUse" x="0" y="6.16467" width="33" height="33" fill="black">
<rect fill="white" y="6.16467" width="33" height="33"/>
<path d="M23.0804 7.16467H9.73053C4.51069 7.16467 1 10.8293 1 16.2801V28.8601C1 34.2955 4.51069 37.9602 9.73053 37.9602H23.0804C28.3002 37.9602 31.7955 34.2955 31.7955 28.8601V16.2801C31.7955 10.8293 28.3002 7.16467 23.0804 7.16467Z"/>
</mask>
<path d="M23.0804 7.16467H9.73053C4.51069 7.16467 1 10.8293 1 16.2801V28.8601C1 34.2955 4.51069 37.9602 9.73053 37.9602H23.0804C28.3002 37.9602 31.7955 34.2955 31.7955 28.8601V16.2801C31.7955 10.8293 28.3002 7.16467 23.0804 7.16467Z" fill="#007AFF" fill-opacity="0.25"/>
<path d="M23.0804 7.54176C23.2886 7.54176 23.4575 7.37293 23.4575 7.16467C23.4575 6.95641 23.2886 6.78758 23.0804 6.78758V7.54176ZM23.0804 6.78758C22.8721 6.78758 22.7033 6.95641 22.7033 7.16467C22.7033 7.37293 22.8721 7.54176 23.0804 7.54176V6.78758ZM23.0804 6.78758H9.73053V7.54176H23.0804V6.78758ZM9.73053 6.78758C7.02906 6.78758 4.74422 7.73797 3.1355 9.41752C1.52813 11.0957 0.622912 13.473 0.622912 16.2801H1.37709C1.37709 13.6365 2.22721 11.4561 3.68015 9.93919C5.13173 8.4237 7.21216 7.54176 9.73053 7.54176V6.78758ZM0.622912 16.2801V28.8601H1.37709V16.2801H0.622912ZM0.622912 28.8601C0.622912 31.6598 1.5283 34.0333 3.13566 35.7094C4.74434 37.3869 7.02908 38.3373 9.73053 38.3373V37.5831C7.21214 37.5831 5.13162 36.7011 3.67999 35.1874C2.22704 33.6723 1.37709 31.4958 1.37709 28.8601H0.622912ZM9.73053 38.3373H23.0804V37.5831H9.73053V38.3373ZM23.0804 38.3373C25.7819 38.3373 28.063 37.3868 29.6679 35.7091C31.2713 34.0328 32.1726 31.6594 32.1726 28.8601H31.4184C31.4184 31.4963 30.572 33.6728 29.1229 35.1878C27.6752 36.7012 25.5987 37.5831 23.0804 37.5831V38.3373ZM32.1726 28.8601V16.2801H31.4184V28.8601H32.1726ZM32.1726 16.2801C32.1726 13.4735 31.2715 11.0962 29.668 9.41786C28.0631 7.73804 25.7819 6.78758 23.0804 6.78758V7.54176C25.5987 7.54176 27.6751 8.42364 29.1227 9.93885C30.5719 11.4556 31.4184 13.636 31.4184 16.2801H32.1726Z" fill="url(#paint1_linear_6474_1826)" mask="url(#path-3-outside-1_6474_1826)"/>
</g>
<g filter="url(#filter2_bd_6474_1826)">
<mask id="path-5-inside-2_6474_1826" fill="white">
<path d="M14.57 27.5635C14.2251 27.5635 13.8802 27.4326 13.6169 27.1693L9.96301 23.5154C9.4364 22.9888 9.4364 22.1357 9.96301 21.6107C10.4896 21.0841 11.3411 21.0825 11.8677 21.6091L14.57 24.3115L20.9262 17.9553C21.4528 17.4287 22.3043 17.4287 22.8309 17.9553C23.3575 18.4819 23.3575 19.3349 22.8309 19.8615L15.5231 27.1693C15.2598 27.4326 14.9149 27.5635 14.57 27.5635Z"/>
</mask>
<path d="M14.57 27.5635C14.2251 27.5635 13.8802 27.4326 13.6169 27.1693L9.96301 23.5154C9.4364 22.9888 9.4364 22.1357 9.96301 21.6107C10.4896 21.0841 11.3411 21.0825 11.8677 21.6091L14.57 24.3115L20.9262 17.9553C21.4528 17.4287 22.3043 17.4287 22.8309 17.9553C23.3575 18.4819 23.3575 19.3349 22.8309 19.8615L15.5231 27.1693C15.2598 27.4326 14.9149 27.5635 14.57 27.5635Z" fill="url(#paint2_linear_6474_1826)"/>
<path d="M9.96301 21.6107L10.0163 21.6641L10.0163 21.664L9.96301 21.6107ZM14.57 24.3115L14.5167 24.3648L14.57 24.4181L14.6233 24.3648L14.57 24.3115ZM22.8309 19.8615L22.7776 19.8082L22.8309 19.8615ZM15.5231 27.1693L15.5765 27.2226L15.5231 27.1693ZM14.57 27.488C14.2442 27.488 13.9187 27.3645 13.6702 27.1159L13.5636 27.2226C13.8416 27.5007 14.206 27.6389 14.57 27.6389V27.488ZM13.6702 27.1159L10.0163 23.4621L9.90968 23.5687L13.5636 27.2226L13.6702 27.1159ZM10.0163 23.4621C9.51914 22.9649 9.51925 22.1596 10.0163 21.6641L9.90976 21.5573C9.35355 22.1119 9.35367 23.0127 9.90968 23.5687L10.0163 23.4621ZM10.0163 21.664C10.5136 21.1667 11.3173 21.1654 11.8144 21.6625L11.921 21.5558C11.3649 20.9996 10.4656 21.0014 9.90968 21.5574L10.0163 21.664ZM11.8144 21.6625L14.5167 24.3648L14.6233 24.2581L11.921 21.5558L11.8144 21.6625ZM14.6233 24.3648L20.9795 18.0086L20.8729 17.9019L14.5167 24.2581L14.6233 24.3648ZM20.9795 18.0086C21.4767 17.5114 22.2804 17.5114 22.7776 18.0086L22.8842 17.9019C22.3282 17.3459 21.4289 17.3459 20.8729 17.9019L20.9795 18.0086ZM22.7776 18.0086C23.2747 18.5057 23.2747 19.311 22.7776 19.8082L22.8842 19.9148C23.4403 19.3588 23.4403 18.458 22.8842 17.9019L22.7776 18.0086ZM22.7776 19.8082L15.4698 27.1159L15.5765 27.2226L22.8842 19.9148L22.7776 19.8082ZM15.4698 27.1159C15.2213 27.3645 14.8958 27.488 14.57 27.488V27.6389C14.934 27.6389 15.2984 27.5007 15.5765 27.2226L15.4698 27.1159Z" fill="url(#paint3_linear_6474_1826)" fill-opacity="0.5" mask="url(#path-5-inside-2_6474_1826)"/>
</g>
<defs>
<filter id="filter0_f_6474_1826" x="11.2623" y="0.759587" width="29.2809" height="30.5763" filterUnits="userSpaceOnUse" color-interpolation-filters="sRGB">
<feFlood flood-opacity="0" result="BackgroundImageFix"/>
<feBlend mode="normal" in="SourceGraphic" in2="BackgroundImageFix" result="shape"/>
<feGaussianBlur stdDeviation="2.63962" result="effect1_foregroundBlur_6474_1826"/>
</filter>
<filter id="filter1_b_6474_1826" x="-8.42719" y="-2.26251" width="49.6499" height="49.6499" filterUnits="userSpaceOnUse" color-interpolation-filters="sRGB">
<feFlood flood-opacity="0" result="BackgroundImageFix"/>
<feGaussianBlur in="BackgroundImage" stdDeviation="4.52505"/>
<feComposite in2="SourceAlpha" operator="in" result="effect1_backgroundBlur_6474_1826"/>
<feBlend mode="normal" in="SourceGraphic" in2="effect1_backgroundBlur_6474_1826" result="shape"/>
</filter>
<filter id="filter2_bd_6474_1826" x="3.91174" y="11.904" width="24.9705" height="21.3158" filterUnits="userSpaceOnUse" color-interpolation-filters="sRGB">
<feFlood flood-opacity="0" result="BackgroundImageFix"/>
<feGaussianBlur in="BackgroundImage" stdDeviation="2.82816"/>
<feComposite in2="SourceAlpha" operator="in" result="effect1_backgroundBlur_6474_1826"/>
<feColorMatrix in="SourceAlpha" type="matrix" values="0 0 0 0 0 0 0 0 0 0 0 0 0 0 0 0 0 0 127 0" result="hardAlpha"/>
<feOffset dx="1.88544" dy="1.88544"/>
<feGaussianBlur stdDeviation="1.88544"/>
<feColorMatrix type="matrix" values="0 0 0 0 0 0 0 0 0 0.478431 0 0 0 0 1 0 0 0 0.5 0"/>
<feBlend mode="normal" in2="effect1_backgroundBlur_6474_1826" result="effect2_dropShadow_6474_1826"/>
<feBlend mode="normal" in="SourceGraphic" in2="effect2_dropShadow_6474_1826" result="shape"/>
</filter>
<linearGradient id="paint0_linear_6474_1826" x1="40.9999" y1="6.23469" x2="17.3733" y2="20.6949" gradientUnits="userSpaceOnUse">
<stop stop-color="#007AFF"/>
<stop offset="1" stop-color="#007AFF"/>
</linearGradient>
<linearGradient id="paint1_linear_6474_1826" x1="5.90214" y1="10.7524" x2="25.5464" y2="35.0823" gradientUnits="userSpaceOnUse">
<stop stop-color="white" stop-opacity="0.25"/>
<stop offset="1" stop-color="white" stop-opacity="0"/>
</linearGradient>
<linearGradient id="paint2_linear_6474_1826" x1="22.2575" y1="19.3667" x2="7.05798" y2="20.0433" gradientUnits="userSpaceOnUse">
<stop stop-color="white"/>
<stop offset="1" stop-color="white" stop-opacity="0.2"/>
</linearGradient>
<linearGradient id="paint3_linear_6474_1826" x1="11.0393" y1="20.9159" x2="22.6364" y2="21.0033" gradientUnits="userSpaceOnUse">
<stop stop-color="white"/>
<stop offset="1" stop-color="white" stop-opacity="0"/>
</linearGradient>
</defs>
</svg>
