<svg width="20" height="17" viewBox="0 0 20 17" fill="none" xmlns="http://www.w3.org/2000/svg">
<g clip-path="url(#clip0_6803_1849)">
<path d="M6.31606 16.2009C13.8134 16.2009 17.9134 9.99449 17.9134 4.61255C17.9134 4.43626 17.9098 4.26078 17.9019 4.08609C18.6978 3.51119 19.3895 2.79376 19.9351 1.97707C19.2048 2.30144 18.4188 2.5198 17.5944 2.61827C18.4359 2.11404 19.0819 1.31641 19.3867 0.365552C18.5992 0.832062 17.7271 1.17112 16.7985 1.35418C16.0547 0.562532 14.9958 0.0673828 13.8232 0.0673828C11.5723 0.0673828 9.74695 1.89136 9.74695 4.13968C9.74695 4.45928 9.78271 4.77016 9.85264 5.06836C6.46498 4.89803 3.46105 3.27735 1.45065 0.813002C1.1006 1.41489 0.898749 2.11406 0.898749 2.86008C0.898749 4.27311 1.61835 5.52054 2.71262 6.25031C2.04388 6.22966 1.41568 6.04623 0.866616 5.74091C0.866016 5.758 0.866013 5.77466 0.866013 5.79293C0.866013 7.76539 2.27101 9.41224 4.13608 9.78542C3.79357 9.87872 3.43321 9.92874 3.06128 9.92874C2.79904 9.92874 2.54355 9.90295 2.29521 9.8553C2.81413 11.4736 4.31888 12.6512 6.10288 12.6841C4.70781 13.7767 2.95041 14.4275 1.04042 14.4275C0.711815 14.4275 0.387192 14.4088 0.0681458 14.3711C1.87208 15.5265 4.01408 16.2006 6.31628 16.2006" fill="#0F0F0F"/>
</g>
<defs>
<clipPath id="clip0_6803_1849">
<rect width="20" height="16.2667" fill="white"/>
</clipPath>
</defs>
</svg>
