<svg width="121" height="84" viewBox="0 0 121 84" fill="none" xmlns="http://www.w3.org/2000/svg">
<path d="M100.371 0H20.4455H20.4468C15.0233 0 9.82279 2.15359 5.9888 5.9888C2.15349 9.82279 0 15.0233 0 20.4468V63.1979V63.1966C0 68.6202 2.15359 73.8207 5.9888 77.6547C9.82279 81.49 15.0233 83.6435 20.4468 83.6435H100.373H100.371C105.795 83.6435 110.996 81.4899 114.83 77.6547C118.665 73.8207 120.818 68.6202 120.818 63.1966V20.4455V20.4468C120.818 15.0233 118.665 9.82279 114.83 5.9888C110.996 2.15349 105.795 0 100.371 0ZM65.5201 51.1154L47.398 60.4092V23.2343L83.6435 41.8217L65.5201 51.1154Z" fill="white"/>
</svg>
